<svg width="59" height="7" viewBox="0 0 59 7" fill="none" xmlns="http://www.w3.org/2000/svg">
<path d="M3.344 6.048C2.92267 6.048 2.53333 5.97867 2.176 5.84C1.81867 5.696 1.50933 5.496 1.248 5.24C0.986667 4.984 0.781333 4.68267 0.632 4.336C0.488 3.98933 0.416 3.61067 0.416 3.2C0.416 2.78933 0.488 2.41067 0.632 2.064C0.781333 1.71733 0.986667 1.416 1.248 1.16C1.51467 0.904 1.82667 0.706666 2.184 0.568C2.54133 0.424 2.93067 0.352 3.352 0.352C3.75733 0.352 4.13867 0.421333 4.496 0.56C4.85333 0.693333 5.15467 0.896 5.4 1.168L5.024 1.544C4.79467 1.30933 4.54133 1.14133 4.264 1.04C3.98667 0.933333 3.688 0.88 3.368 0.88C3.032 0.88 2.72 0.938666 2.432 1.056C2.144 1.168 1.89333 1.33067 1.68 1.544C1.46667 1.752 1.29867 1.99733 1.176 2.28C1.05867 2.55733 1 2.864 1 3.2C1 3.536 1.05867 3.84533 1.176 4.128C1.29867 4.40533 1.46667 4.65067 1.68 4.864C1.89333 5.072 2.144 5.23467 2.432 5.352C2.72 5.464 3.032 5.52 3.368 5.52C3.688 5.52 3.98667 5.46667 4.264 5.36C4.54133 5.25333 4.79467 5.08267 5.024 4.848L5.4 5.224C5.15467 5.496 4.85333 5.70133 4.496 5.84C4.13867 5.97867 3.75467 6.048 3.344 6.048ZM6.542 6V0.0639997H7.11V6H6.542ZM10.4024 6.04C9.9971 6.04 9.63177 5.94933 9.30644 5.768C8.98644 5.58133 8.7331 5.328 8.54644 5.008C8.35977 4.68267 8.26644 4.312 8.26644 3.896C8.26644 3.47467 8.35977 3.104 8.54644 2.784C8.7331 2.464 8.98644 2.21333 9.30644 2.032C9.62644 1.85067 9.99177 1.76 10.4024 1.76C10.8184 1.76 11.1864 1.85067 11.5064 2.032C11.8318 2.21333 12.0851 2.464 12.2664 2.784C12.4531 3.104 12.5464 3.47467 12.5464 3.896C12.5464 4.312 12.4531 4.68267 12.2664 5.008C12.0851 5.328 11.8318 5.58133 11.5064 5.768C11.1811 5.94933 10.8131 6.04 10.4024 6.04ZM10.4024 5.536C10.7064 5.536 10.9758 5.46933 11.2104 5.336C11.4451 5.19733 11.6291 5.00533 11.7624 4.76C11.9011 4.50933 11.9704 4.22133 11.9704 3.896C11.9704 3.56533 11.9011 3.27733 11.7624 3.032C11.6291 2.78667 11.4451 2.59733 11.2104 2.464C10.9758 2.32533 10.7091 2.256 10.4104 2.256C10.1118 2.256 9.8451 2.32533 9.61044 2.464C9.37577 2.59733 9.1891 2.78667 9.05044 3.032C8.91177 3.27733 8.84244 3.56533 8.84244 3.896C8.84244 4.22133 8.91177 4.50933 9.05044 4.76C9.1891 5.00533 9.37577 5.19733 9.61044 5.336C9.8451 5.46933 10.1091 5.536 10.4024 5.536ZM14.8341 6.04C14.4874 6.04 14.1594 5.992 13.8501 5.896C13.5407 5.79467 13.2981 5.66933 13.1221 5.52L13.3781 5.072C13.5487 5.2 13.7674 5.312 14.0341 5.408C14.3007 5.49867 14.5807 5.544 14.8741 5.544C15.2741 5.544 15.5621 5.48267 15.7381 5.36C15.9141 5.232 16.0021 5.064 16.0021 4.856C16.0021 4.70133 15.9514 4.58133 15.8501 4.496C15.7541 4.40533 15.6261 4.33867 15.4661 4.296C15.3061 4.248 15.1274 4.208 14.9301 4.176C14.7327 4.144 14.5354 4.10667 14.3381 4.064C14.1461 4.02133 13.9701 3.96 13.8101 3.88C13.6501 3.79467 13.5194 3.68 13.4181 3.536C13.3221 3.392 13.2741 3.2 13.2741 2.96C13.2741 2.73067 13.3381 2.52533 13.4661 2.344C13.5941 2.16267 13.7807 2.02133 14.0261 1.92C14.2767 1.81333 14.5807 1.76 14.9381 1.76C15.2101 1.76 15.4821 1.79733 15.7541 1.872C16.0261 1.94133 16.2501 2.03467 16.4261 2.152L16.1781 2.608C15.9914 2.48 15.7914 2.38933 15.5781 2.336C15.3647 2.27733 15.1514 2.248 14.9381 2.248C14.5594 2.248 14.2794 2.31467 14.0981 2.448C13.9221 2.576 13.8341 2.74133 13.8341 2.944C13.8341 3.104 13.8821 3.22933 13.9781 3.32C14.0794 3.41067 14.2101 3.48267 14.3701 3.536C14.5354 3.584 14.7141 3.624 14.9061 3.656C15.1034 3.688 15.2981 3.728 15.4901 3.776C15.6874 3.81867 15.8661 3.88 16.0261 3.96C16.1914 4.03467 16.3221 4.144 16.4181 4.288C16.5194 4.42667 16.5701 4.61067 16.5701 4.84C16.5701 5.08533 16.5007 5.29867 16.3621 5.48C16.2287 5.656 16.0314 5.79467 15.7701 5.896C15.5141 5.992 15.2021 6.04 14.8341 6.04ZM19.3963 6.04C18.959 6.04 18.575 5.94933 18.2443 5.768C17.9136 5.58133 17.655 5.328 17.4683 5.008C17.2816 4.68267 17.1883 4.312 17.1883 3.896C17.1883 3.48 17.2763 3.112 17.4523 2.792C17.6336 2.472 17.879 2.22133 18.1883 2.04C18.503 1.85333 18.855 1.76 19.2443 1.76C19.639 1.76 19.9883 1.85067 20.2923 2.032C20.6016 2.208 20.8443 2.45867 21.0203 2.784C21.1963 3.104 21.2843 3.47467 21.2843 3.896C21.2843 3.92267 21.2816 3.952 21.2763 3.984C21.2763 4.01067 21.2763 4.04 21.2763 4.072H17.6203V3.648H20.9723L20.7483 3.816C20.7483 3.512 20.6816 3.24267 20.5483 3.008C20.4203 2.768 20.2443 2.58133 20.0203 2.448C19.7963 2.31467 19.5376 2.248 19.2443 2.248C18.9563 2.248 18.6976 2.31467 18.4683 2.448C18.239 2.58133 18.0603 2.768 17.9323 3.008C17.8043 3.248 17.7403 3.52267 17.7403 3.832V3.92C17.7403 4.24 17.8096 4.52267 17.9483 4.768C18.0923 5.008 18.2896 5.19733 18.5403 5.336C18.7963 5.46933 19.087 5.536 19.4123 5.536C19.6683 5.536 19.9056 5.49067 20.1243 5.4C20.3483 5.30933 20.5403 5.17067 20.7003 4.984L21.0203 5.352C20.8336 5.576 20.599 5.74667 20.3163 5.864C20.039 5.98133 19.7323 6.04 19.3963 6.04ZM25.8622 6.04C25.4675 6.04 25.1635 5.93333 24.9502 5.72C24.7369 5.50667 24.6302 5.20533 24.6302 4.816V0.872H25.1982V4.784C25.1982 5.02933 25.2595 5.21867 25.3822 5.352C25.5102 5.48533 25.6915 5.552 25.9262 5.552C26.1769 5.552 26.3849 5.48 26.5502 5.336L26.7502 5.744C26.6382 5.84533 26.5022 5.92 26.3422 5.968C26.1875 6.016 26.0275 6.04 25.8622 6.04ZM23.8782 2.272V1.8H26.4782V2.272H23.8782ZM29.9282 1.76C30.2695 1.76 30.5682 1.82667 30.8242 1.96C31.0855 2.088 31.2882 2.28533 31.4322 2.552C31.5815 2.81867 31.6562 3.15467 31.6562 3.56V6H31.0882V3.616C31.0882 3.17333 30.9762 2.84 30.7522 2.616C30.5335 2.38667 30.2242 2.272 29.8242 2.272C29.5255 2.272 29.2642 2.33333 29.0402 2.456C28.8215 2.57333 28.6509 2.74667 28.5282 2.976C28.4109 3.2 28.3522 3.472 28.3522 3.792V6H27.7842V0.0639997H28.3522V2.952L28.2402 2.736C28.3735 2.432 28.5869 2.19467 28.8802 2.024C29.1735 1.848 29.5229 1.76 29.9282 1.76ZM34.9744 6.04C34.5371 6.04 34.1531 5.94933 33.8224 5.768C33.4918 5.58133 33.2331 5.328 33.0464 5.008C32.8598 4.68267 32.7664 4.312 32.7664 3.896C32.7664 3.48 32.8544 3.112 33.0304 2.792C33.2118 2.472 33.4571 2.22133 33.7664 2.04C34.0811 1.85333 34.4331 1.76 34.8224 1.76C35.2171 1.76 35.5664 1.85067 35.8704 2.032C36.1798 2.208 36.4224 2.45867 36.5984 2.784C36.7744 3.104 36.8624 3.47467 36.8624 3.896C36.8624 3.92267 36.8598 3.952 36.8544 3.984C36.8544 4.01067 36.8544 4.04 36.8544 4.072H33.1984V3.648H36.5504L36.3264 3.816C36.3264 3.512 36.2598 3.24267 36.1264 3.008C35.9984 2.768 35.8224 2.58133 35.5984 2.448C35.3744 2.31467 35.1158 2.248 34.8224 2.248C34.5344 2.248 34.2758 2.31467 34.0464 2.448C33.8171 2.58133 33.6384 2.768 33.5104 3.008C33.3824 3.248 33.3184 3.52267 33.3184 3.832V3.92C33.3184 4.24 33.3878 4.52267 33.5264 4.768C33.6704 5.008 33.8678 5.19733 34.1184 5.336C34.3744 5.46933 34.6651 5.536 34.9904 5.536C35.2464 5.536 35.4838 5.49067 35.7024 5.4C35.9264 5.30933 36.1184 5.17067 36.2784 4.984L36.5984 5.352C36.4118 5.576 36.1771 5.74667 35.8944 5.864C35.6171 5.98133 35.3104 6.04 34.9744 6.04ZM40.2323 6V0.4H42.5123C43.1096 0.4 43.6323 0.52 44.0803 0.76C44.5336 0.994667 44.8856 1.32267 45.1363 1.744C45.387 2.16533 45.5123 2.65067 45.5123 3.2C45.5123 3.74933 45.387 4.23467 45.1363 4.656C44.8856 5.07733 44.5336 5.408 44.0803 5.648C43.6323 5.88267 43.1096 6 42.5123 6H40.2323ZM40.8243 5.488H42.4803C42.9763 5.488 43.4056 5.392 43.7683 5.2C44.1363 5.00267 44.4216 4.73333 44.6243 4.392C44.827 4.04533 44.9283 3.648 44.9283 3.2C44.9283 2.74667 44.827 2.34933 44.6243 2.008C44.4216 1.66667 44.1363 1.4 43.7683 1.208C43.4056 1.01067 42.9763 0.912 42.4803 0.912H40.8243V5.488ZM48.4337 6.04C48.0284 6.04 47.663 5.94933 47.3377 5.768C47.0177 5.58133 46.7644 5.328 46.5777 5.008C46.391 4.68267 46.2977 4.312 46.2977 3.896C46.2977 3.47467 46.391 3.104 46.5777 2.784C46.7644 2.464 47.0177 2.21333 47.3377 2.032C47.6577 1.85067 48.023 1.76 48.4337 1.76C48.8497 1.76 49.2177 1.85067 49.5377 2.032C49.863 2.21333 50.1164 2.464 50.2977 2.784C50.4844 3.104 50.5777 3.47467 50.5777 3.896C50.5777 4.312 50.4844 4.68267 50.2977 5.008C50.1164 5.328 49.863 5.58133 49.5377 5.768C49.2124 5.94933 48.8444 6.04 48.4337 6.04ZM48.4337 5.536C48.7377 5.536 49.007 5.46933 49.2417 5.336C49.4764 5.19733 49.6604 5.00533 49.7937 4.76C49.9324 4.50933 50.0017 4.22133 50.0017 3.896C50.0017 3.56533 49.9324 3.27733 49.7937 3.032C49.6604 2.78667 49.4764 2.59733 49.2417 2.464C49.007 2.32533 48.7404 2.256 48.4417 2.256C48.143 2.256 47.8764 2.32533 47.6417 2.464C47.407 2.59733 47.2204 2.78667 47.0817 3.032C46.943 3.27733 46.8737 3.56533 46.8737 3.896C46.8737 4.22133 46.943 4.50933 47.0817 4.76C47.2204 5.00533 47.407 5.19733 47.6417 5.336C47.8764 5.46933 48.1404 5.536 48.4337 5.536ZM53.4493 6.04C53.044 6.04 52.6786 5.94933 52.3533 5.768C52.0333 5.58133 51.78 5.328 51.5933 5.008C51.4066 4.68267 51.3133 4.312 51.3133 3.896C51.3133 3.47467 51.4066 3.104 51.5933 2.784C51.78 2.464 52.0333 2.21333 52.3533 2.032C52.6733 1.85067 53.0386 1.76 53.4493 1.76C53.8653 1.76 54.2333 1.85067 54.5533 2.032C54.8786 2.21333 55.132 2.464 55.3133 2.784C55.5 3.104 55.5933 3.47467 55.5933 3.896C55.5933 4.312 55.5 4.68267 55.3133 5.008C55.132 5.328 54.8786 5.58133 54.5533 5.768C54.228 5.94933 53.86 6.04 53.4493 6.04ZM53.4493 5.536C53.7533 5.536 54.0226 5.46933 54.2573 5.336C54.492 5.19733 54.676 5.00533 54.8093 4.76C54.948 4.50933 55.0173 4.22133 55.0173 3.896C55.0173 3.56533 54.948 3.27733 54.8093 3.032C54.676 2.78667 54.492 2.59733 54.2573 2.464C54.0226 2.32533 53.756 2.256 53.4573 2.256C53.1586 2.256 52.892 2.32533 52.6573 2.464C52.4226 2.59733 52.236 2.78667 52.0973 3.032C51.9586 3.27733 51.8893 3.56533 51.8893 3.896C51.8893 4.22133 51.9586 4.50933 52.0973 4.76C52.236 5.00533 52.4226 5.19733 52.6573 5.336C52.892 5.46933 53.156 5.536 53.4493 5.536ZM56.7529 6V1.8H57.2969V2.944L57.2409 2.744C57.3583 2.424 57.5556 2.18133 57.8329 2.016C58.1103 1.84533 58.4543 1.76 58.8649 1.76V2.312C58.8436 2.312 58.8223 2.312 58.8009 2.312C58.7796 2.30667 58.7583 2.304 58.7369 2.304C58.2943 2.304 57.9476 2.44 57.6969 2.712C57.4463 2.97867 57.3209 3.36 57.3209 3.856V6H56.7529Z" fill="white"/>
</svg>
